<svg width="156" height="151" xmlns="http://www.w3.org/2000/svg">
 <!-- Created with Method Draw - http://github.com/duopixel/Method-Draw/ -->

 <g>
  <title>background</title>
  <rect fill="none" id="canvas_background" height="153" width="158" y="-1" x="-1"/>
 </g>
 <g>
  <title>Layer 1</title>
  <!-- Created with Method Draw - http://github.com/duopixel/Method-Draw/ -->
  <path id="svg_18" d="m78.750519,3.748169c-41.969589,0 -75.998901,25.949341 -75.998901,57.962585c0,18.310791 11.17112,34.62558 28.563225,45.243927c-2.474785,9.413483 -7.413223,19.840912 -16.958427,29.062317c0,0 22.280418,-1.69223 38.017365,-20.00528c0.90564,0.255005 1.843643,0.446899 2.757813,0.681885c-0.858887,-2.942841 -1.364899,-6.001892 -1.364899,-9.184814c0,-21.598877 20.955353,-38.510834 47.718826,-38.510834c19.223633,0 35.39917,8.758026 43.012756,21.680298c6.481796,-8.529541 10.250137,-18.410065 10.250137,-28.974518c0,-32.006226 -34.028824,-57.955566 -75.997894,-57.955566l0,0zm64.898544,103.765076c0,-17.757507 -18.873581,-32.16333 -42.169968,-32.16333c-23.283417,0 -42.168427,14.405823 -42.168427,32.16333c0,17.766571 18.88501,32.165985 42.168427,32.165985c5.156967,0 10.067856,-0.741364 14.634399,-2.032257c8.729599,10.165833 21.0923,11.101196 21.0923,11.101196c-5.293793,-5.118805 -8.02948,-10.90274 -9.404907,-16.130157c9.644577,-5.885529 15.848175,-14.938019 15.848175,-25.104767z" stroke-opacity="null" stroke-width="1.5" stroke="null" fill="#7f7f7f"/>
  <path id="svg_19" d="m76.750519,0.748161c-41.969574,0 -75.998901,25.949348 -75.998901,57.962593c0,18.310776 11.171112,34.62558 28.563232,45.243927c-2.474792,9.413483 -7.413239,19.840927 -16.958435,29.062317c0,0 22.280426,-1.692215 38.017365,-20.005295c0.90564,0.25502 1.843628,0.446899 2.757813,0.6819c-0.858887,-2.942841 -1.364899,-6.001892 -1.364899,-9.184799c0,-21.598907 20.955353,-38.510849 47.718842,-38.510849c19.223633,0 35.39917,8.758011 43.012756,21.680298c6.481781,-8.529541 10.250122,-18.410049 10.250122,-28.974518c0,-32.006226 -34.028809,-57.955574 -75.997894,-57.955574l0,0zm64.898529,103.765068c0,-17.757492 -18.873566,-32.16333 -42.169952,-32.16333c-23.283417,0 -42.168427,14.405838 -42.168427,32.16333c0,17.766586 18.88501,32.166 42.168427,32.166c5.156952,0 10.067841,-0.741364 14.634399,-2.032272c8.729584,10.165833 21.092316,11.101212 21.092316,11.101212c-5.293823,-5.118805 -8.02948,-10.90274 -9.404907,-16.130157c9.644562,-5.885544 15.848145,-14.938034 15.848145,-25.104782z" stroke-opacity="null" stroke-width="1.5" stroke="null" fill="#51bdca"/>
 </g>
</svg>