<?xml version="1.0" encoding="iso-8859-1"?>
<!-- Generator: Adobe Illustrator 16.0.0, SVG Export Plug-In . SVG Version: 6.00 Build 0)  -->
<!DOCTYPE svg PUBLIC "-//W3C//DTD SVG 1.1//EN" "http://www.w3.org/Graphics/SVG/1.1/DTD/svg11.dtd">
<svg version="1.1" id="Layer_1" xmlns="http://www.w3.org/2000/svg" xmlns:xlink="http://www.w3.org/1999/xlink" x="0px" y="0px"
	 width="300px" height="70px" viewBox="0 0 300 70" style="enable-background:new 0 0 300 70;" xml:space="preserve">
<g>
	<path style="fill:#FFFFFF;" d="M53.148,41.835l-2.314,0.41l0.606-4.694l-0.606-0.917l0.606-5.307l5.925,2.448L53.148,41.835
		 M62.59,55.92h-7.735l7.335-11.735l2.209-7.655l4.621,1.633C68.62,44.08,66.711,50.101,62.59,55.92z M59.88,43.777l-2.916,2.551
		l-5.828,9.592h-3.818l3.818-6.837l3.016-2.555l4.319-12.346l4.623,1.938L59.88,43.777z M49.932,19.898L34.56,10.815l-5.626-1.021
		v4.187l4.319,4.08l-6.028-0.513c0,0,0.204,0.309,5.227,5.716l22.906,3.879l4.017,2.653l-10.447,0.511l-4.319,16.021L30.441,55.92
		h-9.243l3.117-6.229l-0.506-0.199l-8.338,6.428h-2.009l8.542-12.143c0.403-3.472,0.2-1.942,0.703-8.165l-1.307-1.837l-3.416,13.473
		l-7.131,8.672H9.042l4.221-6.025l5.925-18.468l-1.506,0.717l-2.613,7.351l-1.806,1.019c0,0-4.221,10.407-6.432,15.511
		C3.616,51.325,0,44.999,0,33.98C0,17.449,13.964,0,34.962,0c20.196,0,30.946,16.324,32.752,24.796L49.932,19.898z M45.209,55.92
		h-4.82l8.94-11.325l0.907,1.733L45.209,55.92z M34.762,70c-8.54,0-18.987-3.063-26.524-12.449h52.947
		C55.057,65.615,44.506,70,34.762,70z M34.962,2.246c-19.691,0-32.55,16.426-32.55,31.734c0,8.774,2.109,13.16,4.418,17.345
		c2.914-7.959,8.742-23.772,8.742-23.772s2.714-1.432,2.714-1.225l3.917-10.105l2.512-1.323l3.116-6.738l6.831,1.123l13.863,7.857
		l15.574,4.391C60.079,11.122,48.727,2.246,34.962,2.246z"/>
	<path style="fill:#FFFFFF;" d="M287.795,57.551v-1.527h0.303c0.65,0,1.355-0.156,1.804-0.51c0.402-0.361,0.657-0.717,0.657-2.55
		v-25.1c0-0.717,0-2.3-0.758-3.063c-0.447-0.461-1.301-0.666-1.855-0.666h-0.902v-1.53l9.643-0.766v31.125
		c0,1.682,0.249,2.188,0.652,2.55c0.454,0.354,1.307,0.51,2.258,0.51H300v1.527H287.795 M257.307,29.9
		c-2.109,0-3.816-1.732-3.816-3.876s1.707-3.83,3.816-3.83s3.816,1.687,3.816,3.83S259.416,29.9,257.307,29.9z M278.551,57.551
		l-0.102-3.877c-0.404,1.992-3.414,4.59-6.779,4.59c-5.273,0-6.93-3.774-6.93-6.173c0-5.66,5.575-7.549,13.259-9.077v-4.034
		c0-2.754-1.154-4.384-4.722-4.384c-2.411,0-4.469,1.475-4.773,2.347v0.102c0.305-0.46,0.957-0.613,1.456-0.613
		c1.761,0,2.964,1.02,2.964,2.807c0,1.379-1.4,2.908-3.359,2.908c-1.61,0-3.518-1.07-3.518-3.57c0-3.368,3.866-5.665,8.84-5.665
		c4.421,0,9.24,1.275,9.24,8.264v11.733c0,1.738,0.252,2.295,0.654,2.606c0.451,0.354,1.057,0.51,1.705,0.51h0.506v1.527H278.551z
		 M251.225,57.551v-1.527h0.754c0.707,0,1.512-0.057,1.958-0.718c0.454-0.66,0.454-2.044,0.454-3.621V38.88
		c0-1.019,0.102-2.449-0.756-3.163c-0.501-0.46-1.452-0.51-2.358-0.51h-0.504v-1.584h9.798v18.062c0,1.577-0.051,2.961,0.451,3.621
		c0.45,0.661,1.203,0.718,1.912,0.718h0.951v1.527H251.225z M249.92,55.256c-1,2.146-2.912,3.008-5.777,3.008
		c-5.072,0-5.924-3.72-5.924-6.678V35.207h-4.223v-1.584h0.404c5.475,0,8.389-7.396,8.389-11.019h1.557v11.019h4.718v1.584h-4.614
		v17.139c0,1.637,0.195,3.213,1.957,3.213c0.754,0,1.252-0.356,1.604-0.913c0.956-1.384,0.909-4.137,0.909-5.973h1.853
		C250.772,51.479,250.578,53.828,249.92,55.256z M225.861,57.551V39.747c0-3.521-1.656-3.776-3.015-3.776
		c-0.952,0-2.056,0.559-2.81,1.788c-0.656,1.121-1.01,3.16-1.01,5.15v8.827c0,2.04-0.098,3.061,0.354,3.569
		c0.398,0.461,0.956,0.718,2.262,0.718c0,0,0.303,0,0.702,0v1.527h-12.808v-1.527h0.753c1.103,0,1.808-0.257,2.208-0.718
		c0.454-0.509,0.352-1.529,0.352-3.569V39.439c0-1.578,0.049-2.91-0.398-3.569c-0.502-0.663-1.256-0.715-1.961-0.715h-0.953v-1.532
		h8.942l0.097,3.726h0.051c0.857-2.247,3.016-4.438,6.631-4.438c5.428,0,6.732,3.01,6.732,8.009v10.867
		c0,1.99-0.051,2.859,0.396,3.52c0.457,0.661,1.312,0.718,1.964,0.718h0.954v1.527H225.861z M193.463,44.797
		c0,0-0.15,2.502,0.352,5.41c0.503,2.906,1.706,5.97,5.072,5.97c4.67,0,6.881-4.187,6.881-6.788h1.961
		c0,3.419-3.268,8.875-9.696,8.875c-7.53,0-11.247-5.405-11.247-12.701c0-7.551,4.868-12.652,11.047-12.652
		c7.333,0,10.198,5.407,10.198,11.887H193.463z M176.839,57.551l-0.104-3.723c-0.452,1.579-2.712,4.436-6.582,4.436
		c-7.431,0-9.392-6.886-9.392-12.701c0-5.766,3.415-12.652,10.197-12.652c3.365,0,4.722,1.378,5.226,2.397v-7.443
		c0-1.332,0-2.3-0.756-3.063c-0.452-0.461-1.153-0.666-2.307-0.666c0,0-0.151,0-0.457,0v-1.53l9.646-0.766v31.125
		c0,1.682,0.254,2.188,0.656,2.55c0.453,0.354,1.302,0.51,2.205,0.51h0.659v1.527H176.839z M150.715,57.551l-0.102-3.723
		c0,0-0.047,0.154-0.047,0c-0.605,1.938-3.167,4.436-6.58,4.436c-5.678,0-6.933-3.361-6.933-7.803v-10.31
		c0-3.005-0.102-4.128-0.302-4.435c-0.15-0.254-0.402-0.562-1.708-0.562c0,0,0,0-0.352,0v-1.532h8.538v17.504
		c0,3.823,2.061,3.926,3.064,3.926c1.709,0,3.063-1.529,3.57-3.574c0.301-1.17,0.301-2.5,0.301-3.821v-7.506
		c0-2.088,0.048-3.824-0.402-4.334c-0.406-0.459-0.955-0.662-2.517-0.662c0,0-0.146,0-0.497,0v-1.532h9.541v18.163
		c0,1.583,0.103,2.859,0.553,3.52c0.454,0.661,1.155,0.718,1.861,0.718c0,0,0.65,0,0.904,0c0,0.46,0,1.527,0,1.527H150.715z
		 M130.423,38.933c-1.761,0-2.812-1.276-2.812-2.299c0-0.357,0-0.764,0.249-1.326h-0.049c-2.411,2.041-2.965,9.797-2.965,12.804
		v3.675c0,1.583,0,2.859,0.456,3.52c0.452,0.661,1.604,0.718,2.26,0.718c0,0,2.009,0,2.256,0c0,0.46,0,1.527,0,1.527h-15.869v-1.527
		c0.502,0,1.507,0,1.507,0c1.607,0,2.412-0.257,2.814-0.924c0.55-0.917,0.452-3.363,0.452-3.363v-9.338
		c0-3.059-0.102-5.354-0.452-6.173c-0.402-0.867-1.005-1.07-2.364-1.07h-0.552v-1.532h8.539l0.252,6.124h0.052
		c0.25-2.958,1.958-6.837,5.874-6.837c2.11,0,3.418,1.022,3.418,3.01C133.487,37.45,132.383,38.979,130.423,38.933z M101.141,42.398
		h-2.415v10.409c0,1.071,0.102,1.938,0.603,2.498c0.454,0.461,1.258,0.718,2.715,0.718h1.253v1.527H87.376v-1.527
		c0.704,0,1.407,0,1.407,0c1.203,0,2.209-0.208,2.712-0.616c0.5-0.457,0.753-1.225,0.753-2.6V27.653
		c0-1.629-0.252-2.755-1.057-3.157c-0.5-0.311-1.454-0.361-2.76-0.361h-1.055v-1.53h13.765c7.03,0,13.111,2.548,13.111,9.948
		C114.252,39.593,108.271,42.398,101.141,42.398z M277.999,44.542c-4.468,0.867-6.933,2.039-6.933,6.683
		c0,2.704,1.358,4.081,2.865,4.081c2.111,0,2.859-1.274,3.313-2.192c0.504-0.921,0.755-2.906,0.755-4.75V44.542z M197.785,34.237
		c-4.124,0-4.174,6.529-4.271,8.93h8.232C201.799,40.563,201.599,34.237,197.785,34.237z M176.185,42.909
		c0-2.958-0.4-8.01-4.173-8.01c-4.266,0-4.316,7.246-4.316,10.663c0,2.959,0.203,9.951,4.17,9.951c1.504,0,2.764-0.97,3.363-2.4
		c0.404-1.022,0.956-2.551,0.956-5.256V42.909z M101.141,24.135h-2.415v16.584h2.415c5.571,0,6.577-4.033,6.577-8.166
		C107.718,28.422,106.712,24.135,101.141,24.135z"/>
</g>
</svg>
